<mxfile host="app.diagrams.net" agent="Mozilla/5.0 (Macintosh; Intel Mac OS X 10_15_7) AppleWebKit/537.36 (KHTML, like Gecko) Chrome/131.0.0.0 Safari/537.36" version="25.0.3">
  <diagram name="Page-1" id="ibD3uQdw_EN_1K70dxEA">
    <mxGraphModel dx="2485" dy="932" grid="1" gridSize="10" guides="1" tooltips="1" connect="1" arrows="1" fold="1" page="1" pageScale="1" pageWidth="850" pageHeight="1100" math="0" shadow="0">
      <root>
        <mxCell id="0" />
        <mxCell id="1" parent="0" />
        <mxCell id="gZHHVHFT8oceTVKPA3RS-24" value="Menadzer prodaje" style="swimlane;horizontal=0;whiteSpace=wrap;html=1;startSize=30;" parent="1" vertex="1">
          <mxGeometry x="-20" y="570" width="2960" height="400" as="geometry" />
        </mxCell>
        <mxCell id="gZHHVHFT8oceTVKPA3RS-41" value="" style="edgeStyle=orthogonalEdgeStyle;rounded=0;orthogonalLoop=1;jettySize=auto;html=1;" parent="gZHHVHFT8oceTVKPA3RS-24" source="gZHHVHFT8oceTVKPA3RS-32" edge="1">
          <mxGeometry relative="1" as="geometry">
            <Array as="points">
              <mxPoint x="160" y="140" />
              <mxPoint x="160" y="140" />
            </Array>
            <mxPoint x="210" y="140" as="targetPoint" />
          </mxGeometry>
        </mxCell>
        <mxCell id="gZHHVHFT8oceTVKPA3RS-32" value="Sva vozila na stanju?" style="rhombus;whiteSpace=wrap;html=1;" parent="gZHHVHFT8oceTVKPA3RS-24" vertex="1">
          <mxGeometry x="55" y="90" width="90" height="100" as="geometry" />
        </mxCell>
        <mxCell id="gZHHVHFT8oceTVKPA3RS-39" value="Slanje zahteva za slanje novog spiska" style="whiteSpace=wrap;html=1;rounded=1;" parent="gZHHVHFT8oceTVKPA3RS-24" vertex="1">
          <mxGeometry x="210" y="110" width="120" height="60" as="geometry" />
        </mxCell>
        <mxCell id="gZHHVHFT8oceTVKPA3RS-46" value="Slanje ponude" style="rounded=1;whiteSpace=wrap;html=1;" parent="gZHHVHFT8oceTVKPA3RS-24" vertex="1">
          <mxGeometry x="190" y="230" width="120" height="60" as="geometry" />
        </mxCell>
        <mxCell id="gZHHVHFT8oceTVKPA3RS-45" style="edgeStyle=orthogonalEdgeStyle;rounded=0;orthogonalLoop=1;jettySize=auto;html=1;" parent="gZHHVHFT8oceTVKPA3RS-24" source="gZHHVHFT8oceTVKPA3RS-32" target="gZHHVHFT8oceTVKPA3RS-46" edge="1">
          <mxGeometry relative="1" as="geometry">
            <mxPoint x="100" y="250" as="targetPoint" />
            <Array as="points">
              <mxPoint x="100" y="250" />
            </Array>
          </mxGeometry>
        </mxCell>
        <mxCell id="ykrpiuP0jRKE9Gkc_A2T-11" style="edgeStyle=orthogonalEdgeStyle;rounded=0;orthogonalLoop=1;jettySize=auto;html=1;" edge="1" parent="gZHHVHFT8oceTVKPA3RS-24" source="gZHHVHFT8oceTVKPA3RS-59">
          <mxGeometry relative="1" as="geometry">
            <mxPoint x="2770" y="390.00000000000045" as="targetPoint" />
            <Array as="points">
              <mxPoint x="550" y="380" />
              <mxPoint x="2770" y="380" />
            </Array>
          </mxGeometry>
        </mxCell>
        <mxCell id="gZHHVHFT8oceTVKPA3RS-59" value="Odobravanje pregovora?" style="rhombus;whiteSpace=wrap;html=1;rounded=1;" parent="gZHHVHFT8oceTVKPA3RS-24" vertex="1">
          <mxGeometry x="500" y="50" width="100" height="95" as="geometry" />
        </mxCell>
        <mxCell id="gZHHVHFT8oceTVKPA3RS-63" style="edgeStyle=orthogonalEdgeStyle;rounded=0;orthogonalLoop=1;jettySize=auto;html=1;entryX=0.5;entryY=1;entryDx=0;entryDy=0;" parent="gZHHVHFT8oceTVKPA3RS-24" target="gZHHVHFT8oceTVKPA3RS-46" edge="1">
          <mxGeometry relative="1" as="geometry">
            <mxPoint x="506.31578947368416" y="100" as="sourcePoint" />
            <mxPoint x="220" y="327" as="targetPoint" />
            <Array as="points">
              <mxPoint x="440" y="100" />
              <mxPoint x="440" y="367" />
              <mxPoint x="250" y="367" />
            </Array>
          </mxGeometry>
        </mxCell>
        <mxCell id="gZHHVHFT8oceTVKPA3RS-64" value="da" style="edgeLabel;html=1;align=center;verticalAlign=middle;resizable=0;points=[];" parent="gZHHVHFT8oceTVKPA3RS-63" vertex="1" connectable="0">
          <mxGeometry x="-0.9119" y="-2" relative="1" as="geometry">
            <mxPoint x="-50" y="87" as="offset" />
          </mxGeometry>
        </mxCell>
        <mxCell id="gZHHVHFT8oceTVKPA3RS-42" value="ne" style="text;html=1;align=center;verticalAlign=middle;resizable=0;points=[];autosize=1;strokeColor=none;fillColor=none;" parent="gZHHVHFT8oceTVKPA3RS-24" vertex="1">
          <mxGeometry x="150" y="115" width="40" height="30" as="geometry" />
        </mxCell>
        <mxCell id="gZHHVHFT8oceTVKPA3RS-47" value="da" style="text;html=1;align=center;verticalAlign=middle;resizable=0;points=[];autosize=1;strokeColor=none;fillColor=none;" parent="gZHHVHFT8oceTVKPA3RS-24" vertex="1">
          <mxGeometry x="70" y="200" width="40" height="30" as="geometry" />
        </mxCell>
        <mxCell id="gZHHVHFT8oceTVKPA3RS-90" style="edgeStyle=orthogonalEdgeStyle;rounded=0;orthogonalLoop=1;jettySize=auto;html=1;exitX=1;exitY=0.5;exitDx=0;exitDy=0;entryX=0.25;entryY=1;entryDx=0;entryDy=0;" parent="gZHHVHFT8oceTVKPA3RS-24" source="gZHHVHFT8oceTVKPA3RS-85" target="gZHHVHFT8oceTVKPA3RS-89" edge="1">
          <mxGeometry relative="1" as="geometry" />
        </mxCell>
        <mxCell id="gZHHVHFT8oceTVKPA3RS-92" style="edgeStyle=orthogonalEdgeStyle;rounded=0;orthogonalLoop=1;jettySize=auto;html=1;entryX=0.75;entryY=1;entryDx=0;entryDy=0;" parent="gZHHVHFT8oceTVKPA3RS-24" source="gZHHVHFT8oceTVKPA3RS-85" target="gZHHVHFT8oceTVKPA3RS-89" edge="1">
          <mxGeometry relative="1" as="geometry">
            <Array as="points">
              <mxPoint x="705" y="310" />
              <mxPoint x="900" y="310" />
            </Array>
          </mxGeometry>
        </mxCell>
        <mxCell id="gZHHVHFT8oceTVKPA3RS-85" value="Potreban tip transporta za trenutno vozilo?" style="rhombus;whiteSpace=wrap;html=1;" parent="gZHHVHFT8oceTVKPA3RS-24" vertex="1">
          <mxGeometry x="641.88" y="190" width="116.25" height="110" as="geometry" />
        </mxCell>
        <mxCell id="ykrpiuP0jRKE9Gkc_A2T-3" style="edgeStyle=orthogonalEdgeStyle;rounded=0;orthogonalLoop=1;jettySize=auto;html=1;entryX=0.5;entryY=1;entryDx=0;entryDy=0;" edge="1" parent="gZHHVHFT8oceTVKPA3RS-24" source="gZHHVHFT8oceTVKPA3RS-89" target="gZHHVHFT8oceTVKPA3RS-94">
          <mxGeometry relative="1" as="geometry" />
        </mxCell>
        <mxCell id="gZHHVHFT8oceTVKPA3RS-89" value="Dodavanje u spisak vozila za dostavu sa tipom transporta" style="rounded=1;whiteSpace=wrap;html=1;" parent="gZHHVHFT8oceTVKPA3RS-24" vertex="1">
          <mxGeometry x="810" y="155" width="120" height="60" as="geometry" />
        </mxCell>
        <mxCell id="gZHHVHFT8oceTVKPA3RS-94" value="Slanje kompletnog spiska" style="rounded=1;whiteSpace=wrap;html=1;" parent="gZHHVHFT8oceTVKPA3RS-24" vertex="1">
          <mxGeometry x="810" y="45" width="120" height="60" as="geometry" />
        </mxCell>
        <mxCell id="gZHHVHFT8oceTVKPA3RS-108" value="" style="edgeStyle=orthogonalEdgeStyle;rounded=0;orthogonalLoop=1;jettySize=auto;html=1;" parent="gZHHVHFT8oceTVKPA3RS-24" source="gZHHVHFT8oceTVKPA3RS-102" target="gZHHVHFT8oceTVKPA3RS-107" edge="1">
          <mxGeometry relative="1" as="geometry">
            <Array as="points">
              <mxPoint x="1110" y="115" />
              <mxPoint x="1110" y="115" />
            </Array>
          </mxGeometry>
        </mxCell>
        <mxCell id="gZHHVHFT8oceTVKPA3RS-102" value="Prijem informacija" style="rounded=1;whiteSpace=wrap;html=1;" parent="gZHHVHFT8oceTVKPA3RS-24" vertex="1">
          <mxGeometry x="970" y="85" width="100" height="60" as="geometry" />
        </mxCell>
        <mxCell id="gZHHVHFT8oceTVKPA3RS-107" value="Slanje upita za način plaćanja" style="rounded=1;whiteSpace=wrap;html=1;" parent="gZHHVHFT8oceTVKPA3RS-24" vertex="1">
          <mxGeometry x="1110" y="80" width="120" height="65" as="geometry" />
        </mxCell>
        <mxCell id="gZHHVHFT8oceTVKPA3RS-115" value="Prijem uplate" style="rounded=1;whiteSpace=wrap;html=1;" parent="gZHHVHFT8oceTVKPA3RS-24" vertex="1">
          <mxGeometry x="1270" y="205" width="120" height="60" as="geometry" />
        </mxCell>
        <mxCell id="gZHHVHFT8oceTVKPA3RS-91" value="interni" style="text;html=1;align=center;verticalAlign=middle;resizable=0;points=[];autosize=1;strokeColor=none;fillColor=none;" parent="gZHHVHFT8oceTVKPA3RS-24" vertex="1">
          <mxGeometry x="763.13" y="220" width="60" height="30" as="geometry" />
        </mxCell>
        <mxCell id="gZHHVHFT8oceTVKPA3RS-93" value="eksterni" style="text;html=1;align=center;verticalAlign=middle;resizable=0;points=[];autosize=1;strokeColor=none;fillColor=none;" parent="gZHHVHFT8oceTVKPA3RS-24" vertex="1">
          <mxGeometry x="763.13" y="280" width="70" height="30" as="geometry" />
        </mxCell>
        <mxCell id="gZHHVHFT8oceTVKPA3RS-137" value="Da li banka odobrava kredit?" style="rhombus;whiteSpace=wrap;html=1;" parent="gZHHVHFT8oceTVKPA3RS-24" vertex="1">
          <mxGeometry x="1950" y="56.25" width="110" height="107.5" as="geometry" />
        </mxCell>
        <mxCell id="gZHHVHFT8oceTVKPA3RS-142" value="" style="edgeStyle=orthogonalEdgeStyle;rounded=0;orthogonalLoop=1;jettySize=auto;html=1;" parent="gZHHVHFT8oceTVKPA3RS-24" source="gZHHVHFT8oceTVKPA3RS-140" target="gZHHVHFT8oceTVKPA3RS-141" edge="1">
          <mxGeometry relative="1" as="geometry" />
        </mxCell>
        <mxCell id="gZHHVHFT8oceTVKPA3RS-140" value="Procena vrednosti vozila" style="rounded=1;whiteSpace=wrap;html=1;" parent="gZHHVHFT8oceTVKPA3RS-24" vertex="1">
          <mxGeometry x="2110" y="220" width="120" height="60" as="geometry" />
        </mxCell>
        <mxCell id="gZHHVHFT8oceTVKPA3RS-141" value="Obaveštavanje klijenta" style="whiteSpace=wrap;html=1;rounded=1;" parent="gZHHVHFT8oceTVKPA3RS-24" vertex="1">
          <mxGeometry x="2310" y="70" width="120" height="60" as="geometry" />
        </mxCell>
        <mxCell id="gZHHVHFT8oceTVKPA3RS-151" value="" style="edgeStyle=orthogonalEdgeStyle;rounded=0;orthogonalLoop=1;jettySize=auto;html=1;" parent="gZHHVHFT8oceTVKPA3RS-24" source="gZHHVHFT8oceTVKPA3RS-149" target="gZHHVHFT8oceTVKPA3RS-150" edge="1">
          <mxGeometry relative="1" as="geometry" />
        </mxCell>
        <mxCell id="gZHHVHFT8oceTVKPA3RS-149" value="Izračunavanje ostatka" style="rounded=1;whiteSpace=wrap;html=1;" parent="gZHHVHFT8oceTVKPA3RS-24" vertex="1">
          <mxGeometry x="2470" y="67.5" width="120" height="60" as="geometry" />
        </mxCell>
        <mxCell id="gZHHVHFT8oceTVKPA3RS-150" value="Obaveštavanje klijenta" style="whiteSpace=wrap;html=1;rounded=1;" parent="gZHHVHFT8oceTVKPA3RS-24" vertex="1">
          <mxGeometry x="2630" y="67.5" width="120" height="60" as="geometry" />
        </mxCell>
        <mxCell id="gZHHVHFT8oceTVKPA3RS-161" style="edgeStyle=orthogonalEdgeStyle;rounded=0;orthogonalLoop=1;jettySize=auto;html=1;" parent="gZHHVHFT8oceTVKPA3RS-24" source="gZHHVHFT8oceTVKPA3RS-157" edge="1">
          <mxGeometry relative="1" as="geometry">
            <mxPoint x="2160" y="210" as="targetPoint" />
          </mxGeometry>
        </mxCell>
        <mxCell id="gZHHVHFT8oceTVKPA3RS-157" value="Plaćanje ostatka?" style="rhombus;whiteSpace=wrap;html=1;" parent="gZHHVHFT8oceTVKPA3RS-24" vertex="1">
          <mxGeometry x="2120" y="20" width="80" height="80" as="geometry" />
        </mxCell>
        <mxCell id="gZHHVHFT8oceTVKPA3RS-159" value="ne" style="text;html=1;align=center;verticalAlign=middle;resizable=0;points=[];autosize=1;strokeColor=none;fillColor=none;" parent="gZHHVHFT8oceTVKPA3RS-24" vertex="1">
          <mxGeometry x="2125" y="127.5" width="40" height="30" as="geometry" />
        </mxCell>
        <mxCell id="gZHHVHFT8oceTVKPA3RS-166" value="Registracija transakcije" style="rounded=1;whiteSpace=wrap;html=1;" parent="gZHHVHFT8oceTVKPA3RS-24" vertex="1">
          <mxGeometry x="2710" y="270" width="120" height="60" as="geometry" />
        </mxCell>
        <mxCell id="ykrpiuP0jRKE9Gkc_A2T-7" style="edgeStyle=orthogonalEdgeStyle;rounded=0;orthogonalLoop=1;jettySize=auto;html=1;entryX=0.5;entryY=0;entryDx=0;entryDy=0;" edge="1" parent="gZHHVHFT8oceTVKPA3RS-24" source="gZHHVHFT8oceTVKPA3RS-121" target="gZHHVHFT8oceTVKPA3RS-115">
          <mxGeometry relative="1" as="geometry" />
        </mxCell>
        <mxCell id="gZHHVHFT8oceTVKPA3RS-121" value="Konvertovanje novca" style="whiteSpace=wrap;html=1;rounded=1;" parent="gZHHVHFT8oceTVKPA3RS-24" vertex="1">
          <mxGeometry x="1270" y="22.5" width="120" height="60" as="geometry" />
        </mxCell>
        <mxCell id="gZHHVHFT8oceTVKPA3RS-26" value="Start" style="ellipse;whiteSpace=wrap;html=1;" parent="1" vertex="1">
          <mxGeometry x="30" y="100" width="90" height="50" as="geometry" />
        </mxCell>
        <mxCell id="gZHHVHFT8oceTVKPA3RS-30" value="Prodaja vozila" style="rounded=0;whiteSpace=wrap;html=1;" parent="1" vertex="1">
          <mxGeometry x="-20" y="210" width="2960" height="30" as="geometry" />
        </mxCell>
        <mxCell id="gZHHVHFT8oceTVKPA3RS-58" style="edgeStyle=orthogonalEdgeStyle;rounded=0;orthogonalLoop=1;jettySize=auto;html=1;entryX=0.425;entryY=-0.022;entryDx=0;entryDy=0;entryPerimeter=0;" parent="1" source="gZHHVHFT8oceTVKPA3RS-26" target="gZHHVHFT8oceTVKPA3RS-31" edge="1">
          <mxGeometry relative="1" as="geometry" />
        </mxCell>
        <mxCell id="gZHHVHFT8oceTVKPA3RS-25" value="Klijent" style="swimlane;horizontal=0;whiteSpace=wrap;html=1;startSize=30;" parent="1" vertex="1">
          <mxGeometry x="-20" y="240" width="2960" height="330" as="geometry" />
        </mxCell>
        <mxCell id="gZHHVHFT8oceTVKPA3RS-31" value="Slanje spiska željenih vozila" style="rounded=1;whiteSpace=wrap;html=1;" parent="gZHHVHFT8oceTVKPA3RS-25" vertex="1">
          <mxGeometry x="60" y="40" width="80" height="90" as="geometry" />
        </mxCell>
        <mxCell id="gZHHVHFT8oceTVKPA3RS-55" style="edgeStyle=orthogonalEdgeStyle;rounded=0;orthogonalLoop=1;jettySize=auto;html=1;entryX=0;entryY=0.5;entryDx=0;entryDy=0;" parent="gZHHVHFT8oceTVKPA3RS-25" source="gZHHVHFT8oceTVKPA3RS-49" target="gZHHVHFT8oceTVKPA3RS-51" edge="1">
          <mxGeometry relative="1" as="geometry" />
        </mxCell>
        <mxCell id="gZHHVHFT8oceTVKPA3RS-77" style="edgeStyle=orthogonalEdgeStyle;rounded=0;orthogonalLoop=1;jettySize=auto;html=1;entryX=0.5;entryY=0;entryDx=0;entryDy=0;" parent="gZHHVHFT8oceTVKPA3RS-25" source="gZHHVHFT8oceTVKPA3RS-49" target="gZHHVHFT8oceTVKPA3RS-72" edge="1">
          <mxGeometry relative="1" as="geometry">
            <Array as="points">
              <mxPoint x="405" y="30" />
              <mxPoint x="700" y="30" />
            </Array>
          </mxGeometry>
        </mxCell>
        <mxCell id="gZHHVHFT8oceTVKPA3RS-49" value="Zadovoljni ponudom?" style="rhombus;whiteSpace=wrap;html=1;" parent="gZHHVHFT8oceTVKPA3RS-25" vertex="1">
          <mxGeometry x="360" y="45" width="90" height="85" as="geometry" />
        </mxCell>
        <mxCell id="gZHHVHFT8oceTVKPA3RS-51" value="Slanje zahteva za pregovore" style="rounded=1;whiteSpace=wrap;html=1;" parent="gZHHVHFT8oceTVKPA3RS-25" vertex="1">
          <mxGeometry x="490" y="57.5" width="120" height="60" as="geometry" />
        </mxCell>
        <mxCell id="gZHHVHFT8oceTVKPA3RS-56" value="ne" style="text;html=1;align=center;verticalAlign=middle;resizable=0;points=[];autosize=1;strokeColor=none;fillColor=none;" parent="gZHHVHFT8oceTVKPA3RS-25" vertex="1">
          <mxGeometry x="440" y="87.5" width="40" height="30" as="geometry" />
        </mxCell>
        <mxCell id="gZHHVHFT8oceTVKPA3RS-72" value="Slanje zahteva za dogovor oko transporta" style="rounded=1;whiteSpace=wrap;html=1;" parent="gZHHVHFT8oceTVKPA3RS-25" vertex="1">
          <mxGeometry x="640" y="60" width="120" height="60" as="geometry" />
        </mxCell>
        <mxCell id="gZHHVHFT8oceTVKPA3RS-98" style="edgeStyle=orthogonalEdgeStyle;rounded=0;orthogonalLoop=1;jettySize=auto;html=1;entryX=1;entryY=0.5;entryDx=0;entryDy=0;" parent="gZHHVHFT8oceTVKPA3RS-25" source="gZHHVHFT8oceTVKPA3RS-96" target="gZHHVHFT8oceTVKPA3RS-72" edge="1">
          <mxGeometry relative="1" as="geometry">
            <Array as="points">
              <mxPoint x="870" y="90" />
            </Array>
          </mxGeometry>
        </mxCell>
        <mxCell id="gZHHVHFT8oceTVKPA3RS-104" value="" style="edgeStyle=orthogonalEdgeStyle;rounded=0;orthogonalLoop=1;jettySize=auto;html=1;" parent="gZHHVHFT8oceTVKPA3RS-25" source="gZHHVHFT8oceTVKPA3RS-96" target="gZHHVHFT8oceTVKPA3RS-103" edge="1">
          <mxGeometry relative="1" as="geometry" />
        </mxCell>
        <mxCell id="gZHHVHFT8oceTVKPA3RS-96" value="Spisak je uredan?" style="rhombus;whiteSpace=wrap;html=1;rounded=1;" parent="gZHHVHFT8oceTVKPA3RS-25" vertex="1">
          <mxGeometry x="820" y="150" width="100" height="100" as="geometry" />
        </mxCell>
        <mxCell id="gZHHVHFT8oceTVKPA3RS-103" value="Slanje potvrde" style="rounded=1;whiteSpace=wrap;html=1;" parent="gZHHVHFT8oceTVKPA3RS-25" vertex="1">
          <mxGeometry x="960" y="170" width="100" height="60" as="geometry" />
        </mxCell>
        <mxCell id="gZHHVHFT8oceTVKPA3RS-127" style="edgeStyle=orthogonalEdgeStyle;rounded=0;orthogonalLoop=1;jettySize=auto;html=1;entryX=0;entryY=0.5;entryDx=0;entryDy=0;" parent="gZHHVHFT8oceTVKPA3RS-25" source="gZHHVHFT8oceTVKPA3RS-109" target="gZHHVHFT8oceTVKPA3RS-113" edge="1">
          <mxGeometry relative="1" as="geometry" />
        </mxCell>
        <mxCell id="gZHHVHFT8oceTVKPA3RS-109" value="Način plaćanja?" style="rhombus;whiteSpace=wrap;html=1;" parent="gZHHVHFT8oceTVKPA3RS-25" vertex="1">
          <mxGeometry x="1120" y="150" width="100" height="100" as="geometry" />
        </mxCell>
        <mxCell id="gZHHVHFT8oceTVKPA3RS-129" style="edgeStyle=orthogonalEdgeStyle;rounded=0;orthogonalLoop=1;jettySize=auto;html=1;entryX=0.5;entryY=0;entryDx=0;entryDy=0;" parent="gZHHVHFT8oceTVKPA3RS-25" source="gZHHVHFT8oceTVKPA3RS-113" target="gZHHVHFT8oceTVKPA3RS-128" edge="1">
          <mxGeometry relative="1" as="geometry" />
        </mxCell>
        <mxCell id="gZHHVHFT8oceTVKPA3RS-113" value="Valuta?" style="rhombus;whiteSpace=wrap;html=1;" parent="gZHHVHFT8oceTVKPA3RS-25" vertex="1">
          <mxGeometry x="1290" y="57.5" width="80" height="72.5" as="geometry" />
        </mxCell>
        <mxCell id="gZHHVHFT8oceTVKPA3RS-114" value="keš" style="text;html=1;align=center;verticalAlign=middle;resizable=0;points=[];autosize=1;strokeColor=none;fillColor=none;" parent="gZHHVHFT8oceTVKPA3RS-25" vertex="1">
          <mxGeometry x="1220" y="117.5" width="40" height="30" as="geometry" />
        </mxCell>
        <mxCell id="gZHHVHFT8oceTVKPA3RS-117" value="euri" style="text;html=1;align=center;verticalAlign=middle;resizable=0;points=[];autosize=1;strokeColor=none;fillColor=none;" parent="gZHHVHFT8oceTVKPA3RS-25" vertex="1">
          <mxGeometry x="1290" y="140" width="40" height="30" as="geometry" />
        </mxCell>
        <mxCell id="gZHHVHFT8oceTVKPA3RS-128" value="Izvršavanje uplate" style="rounded=1;whiteSpace=wrap;html=1;" parent="gZHHVHFT8oceTVKPA3RS-25" vertex="1">
          <mxGeometry x="1270" y="190" width="120" height="60" as="geometry" />
        </mxCell>
        <mxCell id="gZHHVHFT8oceTVKPA3RS-120" value="dinari" style="text;html=1;align=center;verticalAlign=middle;resizable=0;points=[];autosize=1;strokeColor=none;fillColor=none;" parent="gZHHVHFT8oceTVKPA3RS-25" vertex="1">
          <mxGeometry x="1390" y="100" width="50" height="30" as="geometry" />
        </mxCell>
        <mxCell id="gZHHVHFT8oceTVKPA3RS-99" value="ne" style="text;html=1;align=center;verticalAlign=middle;resizable=0;points=[];autosize=1;strokeColor=none;fillColor=none;" parent="gZHHVHFT8oceTVKPA3RS-25" vertex="1">
          <mxGeometry x="790" y="90" width="40" height="30" as="geometry" />
        </mxCell>
        <mxCell id="gZHHVHFT8oceTVKPA3RS-106" value="da" style="text;html=1;align=center;verticalAlign=middle;resizable=0;points=[];autosize=1;strokeColor=none;fillColor=none;" parent="gZHHVHFT8oceTVKPA3RS-25" vertex="1">
          <mxGeometry x="910" y="170" width="40" height="30" as="geometry" />
        </mxCell>
        <mxCell id="gZHHVHFT8oceTVKPA3RS-134" value="da" style="text;html=1;align=center;verticalAlign=middle;resizable=0;points=[];autosize=1;strokeColor=none;fillColor=none;" parent="gZHHVHFT8oceTVKPA3RS-25" vertex="1">
          <mxGeometry x="530" width="40" height="30" as="geometry" />
        </mxCell>
        <mxCell id="gZHHVHFT8oceTVKPA3RS-139" value="kredit" style="text;html=1;align=center;verticalAlign=middle;resizable=0;points=[];autosize=1;strokeColor=none;fillColor=none;" parent="gZHHVHFT8oceTVKPA3RS-25" vertex="1">
          <mxGeometry x="1130" y="87.5" width="50" height="30" as="geometry" />
        </mxCell>
        <mxCell id="gZHHVHFT8oceTVKPA3RS-147" value="Potvrda?" style="rhombus;whiteSpace=wrap;html=1;" parent="gZHHVHFT8oceTVKPA3RS-25" vertex="1">
          <mxGeometry x="2330" y="190" width="80" height="80" as="geometry" />
        </mxCell>
        <mxCell id="gZHHVHFT8oceTVKPA3RS-145" value="staro za novo" style="text;html=1;align=center;verticalAlign=middle;resizable=0;points=[];autosize=1;strokeColor=none;fillColor=none;" parent="gZHHVHFT8oceTVKPA3RS-25" vertex="1">
          <mxGeometry x="1000" y="87.5" width="100" height="30" as="geometry" />
        </mxCell>
        <mxCell id="gZHHVHFT8oceTVKPA3RS-138" style="edgeStyle=orthogonalEdgeStyle;rounded=0;orthogonalLoop=1;jettySize=auto;html=1;entryX=0.5;entryY=0;entryDx=0;entryDy=0;" parent="gZHHVHFT8oceTVKPA3RS-25" edge="1">
          <mxGeometry relative="1" as="geometry">
            <mxPoint x="1172.536666666667" y="140.06666666666683" as="sourcePoint" />
            <mxPoint x="2007.47" y="376.25" as="targetPoint" />
            <Array as="points">
              <mxPoint x="1172.47" y="40" />
              <mxPoint x="2007.47" y="40" />
            </Array>
          </mxGeometry>
        </mxCell>
        <mxCell id="gZHHVHFT8oceTVKPA3RS-34" style="edgeStyle=orthogonalEdgeStyle;rounded=0;orthogonalLoop=1;jettySize=auto;html=1;entryX=0.5;entryY=0;entryDx=0;entryDy=0;" parent="1" source="gZHHVHFT8oceTVKPA3RS-31" target="gZHHVHFT8oceTVKPA3RS-32" edge="1">
          <mxGeometry relative="1" as="geometry" />
        </mxCell>
        <mxCell id="gZHHVHFT8oceTVKPA3RS-133" style="edgeStyle=orthogonalEdgeStyle;rounded=0;orthogonalLoop=1;jettySize=auto;html=1;entryX=1;entryY=0.5;entryDx=0;entryDy=0;" parent="1" source="gZHHVHFT8oceTVKPA3RS-39" target="gZHHVHFT8oceTVKPA3RS-31" edge="1">
          <mxGeometry relative="1" as="geometry">
            <Array as="points">
              <mxPoint x="240" y="325" />
            </Array>
          </mxGeometry>
        </mxCell>
        <mxCell id="gZHHVHFT8oceTVKPA3RS-50" style="edgeStyle=orthogonalEdgeStyle;rounded=0;orthogonalLoop=1;jettySize=auto;html=1;entryX=0.5;entryY=1;entryDx=0;entryDy=0;" parent="1" source="gZHHVHFT8oceTVKPA3RS-46" target="gZHHVHFT8oceTVKPA3RS-49" edge="1">
          <mxGeometry relative="1" as="geometry" />
        </mxCell>
        <mxCell id="gZHHVHFT8oceTVKPA3RS-60" value="" style="edgeStyle=orthogonalEdgeStyle;rounded=0;orthogonalLoop=1;jettySize=auto;html=1;" parent="1" source="gZHHVHFT8oceTVKPA3RS-51" target="gZHHVHFT8oceTVKPA3RS-59" edge="1">
          <mxGeometry relative="1" as="geometry" />
        </mxCell>
        <mxCell id="gZHHVHFT8oceTVKPA3RS-97" value="" style="edgeStyle=orthogonalEdgeStyle;rounded=0;orthogonalLoop=1;jettySize=auto;html=1;" parent="1" source="gZHHVHFT8oceTVKPA3RS-94" target="gZHHVHFT8oceTVKPA3RS-96" edge="1">
          <mxGeometry relative="1" as="geometry" />
        </mxCell>
        <mxCell id="gZHHVHFT8oceTVKPA3RS-105" style="edgeStyle=orthogonalEdgeStyle;rounded=0;orthogonalLoop=1;jettySize=auto;html=1;entryX=0.395;entryY=0.065;entryDx=0;entryDy=0;entryPerimeter=0;" parent="1" source="gZHHVHFT8oceTVKPA3RS-103" target="gZHHVHFT8oceTVKPA3RS-102" edge="1">
          <mxGeometry relative="1" as="geometry" />
        </mxCell>
        <mxCell id="gZHHVHFT8oceTVKPA3RS-110" style="edgeStyle=orthogonalEdgeStyle;rounded=0;orthogonalLoop=1;jettySize=auto;html=1;entryX=0.5;entryY=1;entryDx=0;entryDy=0;" parent="1" source="gZHHVHFT8oceTVKPA3RS-107" target="gZHHVHFT8oceTVKPA3RS-109" edge="1">
          <mxGeometry relative="1" as="geometry" />
        </mxCell>
        <mxCell id="gZHHVHFT8oceTVKPA3RS-148" style="edgeStyle=orthogonalEdgeStyle;rounded=0;orthogonalLoop=1;jettySize=auto;html=1;entryX=0.5;entryY=1;entryDx=0;entryDy=0;" parent="1" source="gZHHVHFT8oceTVKPA3RS-141" target="gZHHVHFT8oceTVKPA3RS-147" edge="1">
          <mxGeometry relative="1" as="geometry" />
        </mxCell>
        <mxCell id="gZHHVHFT8oceTVKPA3RS-152" style="edgeStyle=orthogonalEdgeStyle;rounded=0;orthogonalLoop=1;jettySize=auto;html=1;entryX=0.5;entryY=0;entryDx=0;entryDy=0;" parent="1" source="gZHHVHFT8oceTVKPA3RS-147" target="gZHHVHFT8oceTVKPA3RS-149" edge="1">
          <mxGeometry relative="1" as="geometry" />
        </mxCell>
        <mxCell id="gZHHVHFT8oceTVKPA3RS-153" value="da" style="text;html=1;align=center;verticalAlign=middle;resizable=0;points=[];autosize=1;strokeColor=none;fillColor=none;" parent="1" vertex="1">
          <mxGeometry x="2420" y="438" width="40" height="30" as="geometry" />
        </mxCell>
        <mxCell id="gZHHVHFT8oceTVKPA3RS-154" style="edgeStyle=orthogonalEdgeStyle;rounded=0;orthogonalLoop=1;jettySize=auto;html=1;entryX=0.5;entryY=0;entryDx=0;entryDy=0;" parent="1" source="gZHHVHFT8oceTVKPA3RS-150" target="gZHHVHFT8oceTVKPA3RS-113" edge="1">
          <mxGeometry relative="1" as="geometry">
            <Array as="points">
              <mxPoint x="2670" y="250" />
              <mxPoint x="1310" y="250" />
            </Array>
          </mxGeometry>
        </mxCell>
        <mxCell id="gZHHVHFT8oceTVKPA3RS-155" style="edgeStyle=orthogonalEdgeStyle;rounded=0;orthogonalLoop=1;jettySize=auto;html=1;entryX=1;entryY=1;entryDx=0;entryDy=0;" parent="1" source="gZHHVHFT8oceTVKPA3RS-137" target="gZHHVHFT8oceTVKPA3RS-109" edge="1">
          <mxGeometry relative="1" as="geometry">
            <Array as="points">
              <mxPoint x="1985" y="760" />
              <mxPoint x="1220" y="760" />
              <mxPoint x="1220" y="465" />
            </Array>
          </mxGeometry>
        </mxCell>
        <mxCell id="gZHHVHFT8oceTVKPA3RS-156" value="ne" style="text;html=1;align=center;verticalAlign=middle;resizable=0;points=[];autosize=1;strokeColor=none;fillColor=none;" parent="1" vertex="1">
          <mxGeometry x="1910" y="738" width="40" height="30" as="geometry" />
        </mxCell>
        <mxCell id="gZHHVHFT8oceTVKPA3RS-160" style="edgeStyle=orthogonalEdgeStyle;rounded=0;orthogonalLoop=1;jettySize=auto;html=1;entryX=0.5;entryY=0;entryDx=0;entryDy=0;" parent="1" source="gZHHVHFT8oceTVKPA3RS-109" target="gZHHVHFT8oceTVKPA3RS-157" edge="1">
          <mxGeometry relative="1" as="geometry">
            <Array as="points">
              <mxPoint x="1080" y="440" />
              <mxPoint x="1080" y="260" />
              <mxPoint x="2140" y="260" />
            </Array>
          </mxGeometry>
        </mxCell>
        <mxCell id="gZHHVHFT8oceTVKPA3RS-171" style="edgeStyle=orthogonalEdgeStyle;rounded=0;orthogonalLoop=1;jettySize=auto;html=1;entryX=0;entryY=0.5;entryDx=0;entryDy=0;" parent="1" source="gZHHVHFT8oceTVKPA3RS-162" target="gZHHVHFT8oceTVKPA3RS-165" edge="1">
          <mxGeometry relative="1" as="geometry">
            <Array as="points">
              <mxPoint x="2400" y="870" />
              <mxPoint x="2400" y="770" />
            </Array>
          </mxGeometry>
        </mxCell>
        <mxCell id="gZHHVHFT8oceTVKPA3RS-162" value="Prijem uplate" style="rounded=1;whiteSpace=wrap;html=1;" parent="1" vertex="1">
          <mxGeometry x="1910" y="820" width="120" height="60" as="geometry" />
        </mxCell>
        <mxCell id="gZHHVHFT8oceTVKPA3RS-163" style="edgeStyle=orthogonalEdgeStyle;rounded=0;orthogonalLoop=1;jettySize=auto;html=1;" parent="1" source="gZHHVHFT8oceTVKPA3RS-157" target="gZHHVHFT8oceTVKPA3RS-162" edge="1">
          <mxGeometry relative="1" as="geometry">
            <Array as="points">
              <mxPoint x="2050" y="630" />
              <mxPoint x="2050" y="850" />
            </Array>
          </mxGeometry>
        </mxCell>
        <mxCell id="gZHHVHFT8oceTVKPA3RS-164" value="da" style="text;html=1;align=center;verticalAlign=middle;resizable=0;points=[];autosize=1;strokeColor=none;fillColor=none;" parent="1" vertex="1">
          <mxGeometry x="2050" y="598" width="40" height="30" as="geometry" />
        </mxCell>
        <mxCell id="gZHHVHFT8oceTVKPA3RS-167" value="" style="edgeStyle=orthogonalEdgeStyle;rounded=0;orthogonalLoop=1;jettySize=auto;html=1;" parent="1" source="gZHHVHFT8oceTVKPA3RS-165" target="gZHHVHFT8oceTVKPA3RS-166" edge="1">
          <mxGeometry relative="1" as="geometry" />
        </mxCell>
        <mxCell id="gZHHVHFT8oceTVKPA3RS-165" value="Potpisivanje ugovora" style="rounded=1;whiteSpace=wrap;html=1;" parent="1" vertex="1">
          <mxGeometry x="2690" y="740" width="120" height="60" as="geometry" />
        </mxCell>
        <mxCell id="gZHHVHFT8oceTVKPA3RS-168" value="Kraj" style="ellipse;whiteSpace=wrap;html=1;" parent="1" vertex="1">
          <mxGeometry x="2695" y="1010" width="110" height="70" as="geometry" />
        </mxCell>
        <mxCell id="gZHHVHFT8oceTVKPA3RS-169" style="edgeStyle=orthogonalEdgeStyle;rounded=0;orthogonalLoop=1;jettySize=auto;html=1;entryX=0.5;entryY=0;entryDx=0;entryDy=0;" parent="1" source="gZHHVHFT8oceTVKPA3RS-166" target="gZHHVHFT8oceTVKPA3RS-168" edge="1">
          <mxGeometry relative="1" as="geometry" />
        </mxCell>
        <mxCell id="gZHHVHFT8oceTVKPA3RS-173" style="edgeStyle=orthogonalEdgeStyle;rounded=0;orthogonalLoop=1;jettySize=auto;html=1;entryX=0;entryY=1;entryDx=0;entryDy=0;" parent="1" source="gZHHVHFT8oceTVKPA3RS-115" target="gZHHVHFT8oceTVKPA3RS-165" edge="1">
          <mxGeometry relative="1" as="geometry">
            <Array as="points">
              <mxPoint x="1310" y="940" />
              <mxPoint x="2670" y="940" />
              <mxPoint x="2670" y="800" />
            </Array>
          </mxGeometry>
        </mxCell>
        <mxCell id="gZHHVHFT8oceTVKPA3RS-174" style="edgeStyle=orthogonalEdgeStyle;rounded=0;orthogonalLoop=1;jettySize=auto;html=1;" parent="1" source="gZHHVHFT8oceTVKPA3RS-137" target="gZHHVHFT8oceTVKPA3RS-165" edge="1">
          <mxGeometry relative="1" as="geometry">
            <Array as="points">
              <mxPoint x="2040" y="750" />
            </Array>
          </mxGeometry>
        </mxCell>
        <mxCell id="ykrpiuP0jRKE9Gkc_A2T-2" style="edgeStyle=orthogonalEdgeStyle;rounded=0;orthogonalLoop=1;jettySize=auto;html=1;entryX=0.5;entryY=0;entryDx=0;entryDy=0;" edge="1" parent="1" source="gZHHVHFT8oceTVKPA3RS-72" target="gZHHVHFT8oceTVKPA3RS-85">
          <mxGeometry relative="1" as="geometry" />
        </mxCell>
        <mxCell id="ykrpiuP0jRKE9Gkc_A2T-6" style="edgeStyle=orthogonalEdgeStyle;rounded=0;orthogonalLoop=1;jettySize=auto;html=1;entryX=0.5;entryY=0;entryDx=0;entryDy=0;" edge="1" parent="1" source="gZHHVHFT8oceTVKPA3RS-128" target="gZHHVHFT8oceTVKPA3RS-121">
          <mxGeometry relative="1" as="geometry" />
        </mxCell>
        <mxCell id="ykrpiuP0jRKE9Gkc_A2T-10" style="edgeStyle=orthogonalEdgeStyle;rounded=0;orthogonalLoop=1;jettySize=auto;html=1;entryX=1;entryY=0.5;entryDx=0;entryDy=0;" edge="1" parent="1" source="gZHHVHFT8oceTVKPA3RS-113" target="gZHHVHFT8oceTVKPA3RS-115">
          <mxGeometry relative="1" as="geometry">
            <Array as="points">
              <mxPoint x="1430" y="334" />
              <mxPoint x="1430" y="805" />
            </Array>
          </mxGeometry>
        </mxCell>
        <mxCell id="ykrpiuP0jRKE9Gkc_A2T-12" value="ne" style="text;html=1;align=center;verticalAlign=middle;resizable=0;points=[];autosize=1;strokeColor=none;fillColor=none;" vertex="1" parent="1">
          <mxGeometry x="530" y="758" width="40" height="30" as="geometry" />
        </mxCell>
      </root>
    </mxGraphModel>
  </diagram>
</mxfile>
